<svg version="1.1" xmlns="http://www.w3.org/2000/svg" xmlns:xlink="http://www.w3.org/1999/xlink" width="1148" height="740"><defs><clipPath id="RisWMNvOLgSK"><path fill="none" stroke="none" d=" M 0 0 L 1148 0 L 1148 740 L 0 740 L 0 0 Z"/></clipPath></defs><g transform="scale(1,1)" clip-path="url(#RisWMNvOLgSK)"><g><path fill="none" stroke="rgb(192,192,192)" paint-order="fill stroke markers" d=" M 41.5 0.5 L 41.5 740.5 M 41.5 0.5 L 41.5 740.5 M 96.5 0.5 L 96.5 740.5 M 151.5 0.5 L 151.5 740.5 M 206.5 0.5 L 206.5 740.5 M 261.5 0.5 L 261.5 740.5 M 316.5 0.5 L 316.5 740.5 M 371.5 0.5 L 371.5 740.5 M 426.5 0.5 L 426.5 740.5 M 481.5 0.5 L 481.5 740.5 M 591.5 0.5 L 591.5 740.5 M 646.5 0.5 L 646.5 740.5 M 701.5 0.5 L 701.5 740.5 M 756.5 0.5 L 756.5 740.5 M 811.5 0.5 L 811.5 740.5 M 866.5 0.5 L 866.5 740.5 M 921.5 0.5 L 921.5 740.5 M 976.5 0.5 L 976.5 740.5 M 1031.5 0.5 L 1031.5 740.5 M 1086.5 0.5 L 1086.5 740.5 M 1141.5 0.5 L 1141.5 740.5" stroke-opacity="1" stroke-linecap="round" stroke-linejoin="round" stroke-miterlimit="10"/><path fill="none" stroke="rgb(192,192,192)" paint-order="fill stroke markers" d=" M 8.5 0.5 L 8.5 740.5 M 19.5 0.5 L 19.5 740.5 M 30.5 0.5 L 30.5 740.5 M 52.5 0.5 L 52.5 740.5 M 63.5 0.5 L 63.5 740.5 M 74.5 0.5 L 74.5 740.5 M 85.5 0.5 L 85.5 740.5 M 107.5 0.5 L 107.5 740.5 M 118.5 0.5 L 118.5 740.5 M 129.5 0.5 L 129.5 740.5 M 140.5 0.5 L 140.5 740.5 M 162.5 0.5 L 162.5 740.5 M 173.5 0.5 L 173.5 740.5 M 184.5 0.5 L 184.5 740.5 M 195.5 0.5 L 195.5 740.5 M 217.5 0.5 L 217.5 740.5 M 228.5 0.5 L 228.5 740.5 M 239.5 0.5 L 239.5 740.5 M 250.5 0.5 L 250.5 740.5 M 272.5 0.5 L 272.5 740.5 M 283.5 0.5 L 283.5 740.5 M 294.5 0.5 L 294.5 740.5 M 305.5 0.5 L 305.5 740.5 M 327.5 0.5 L 327.5 740.5 M 338.5 0.5 L 338.5 740.5 M 349.5 0.5 L 349.5 740.5 M 360.5 0.5 L 360.5 740.5 M 382.5 0.5 L 382.5 740.5 M 393.5 0.5 L 393.5 740.5 M 404.5 0.5 L 404.5 740.5 M 415.5 0.5 L 415.5 740.5 M 437.5 0.5 L 437.5 740.5 M 448.5 0.5 L 448.5 740.5 M 459.5 0.5 L 459.5 740.5 M 470.5 0.5 L 470.5 740.5 M 492.5 0.5 L 492.5 740.5 M 503.5 0.5 L 503.5 740.5 M 514.5 0.5 L 514.5 740.5 M 525.5 0.5 L 525.5 740.5 M 547.5 0.5 L 547.5 740.5 M 558.5 0.5 L 558.5 740.5 M 569.5 0.5 L 569.5 740.5 M 580.5 0.5 L 580.5 740.5 M 602.5 0.5 L 602.5 740.5 M 613.5 0.5 L 613.5 740.5 M 624.5 0.5 L 624.5 740.5 M 635.5 0.5 L 635.5 740.5 M 657.5 0.5 L 657.5 740.5 M 668.5 0.5 L 668.5 740.5 M 679.5 0.5 L 679.5 740.5 M 690.5 0.5 L 690.5 740.5 M 712.5 0.5 L 712.5 740.5 M 723.5 0.5 L 723.5 740.5 M 734.5 0.5 L 734.5 740.5 M 745.5 0.5 L 745.5 740.5 M 767.5 0.5 L 767.5 740.5 M 778.5 0.5 L 778.5 740.5 M 789.5 0.5 L 789.5 740.5 M 800.5 0.5 L 800.5 740.5 M 822.5 0.5 L 822.5 740.5 M 833.5 0.5 L 833.5 740.5 M 844.5 0.5 L 844.5 740.5 M 855.5 0.5 L 855.5 740.5 M 877.5 0.5 L 877.5 740.5 M 888.5 0.5 L 888.5 740.5 M 899.5 0.5 L 899.5 740.5 M 910.5 0.5 L 910.5 740.5 M 932.5 0.5 L 932.5 740.5 M 943.5 0.5 L 943.5 740.5 M 954.5 0.5 L 954.5 740.5 M 965.5 0.5 L 965.5 740.5 M 987.5 0.5 L 987.5 740.5 M 998.5 0.5 L 998.5 740.5 M 1009.5 0.5 L 1009.5 740.5 M 1020.5 0.5 L 1020.5 740.5 M 1042.5 0.5 L 1042.5 740.5 M 1053.5 0.5 L 1053.5 740.5 M 1064.5 0.5 L 1064.5 740.5 M 1075.5 0.5 L 1075.5 740.5 M 1097.5 0.5 L 1097.5 740.5 M 1108.5 0.5 L 1108.5 740.5 M 1119.5 0.5 L 1119.5 740.5 M 1130.5 0.5 L 1130.5 740.5" stroke-opacity="0.23529411764705882" stroke-linecap="round" stroke-linejoin="round" stroke-miterlimit="10"/><path fill="none" stroke="rgb(192,192,192)" paint-order="fill stroke markers" d=" M 0.5 21.5 L 1148.5 21.5 M 0.5 21.5 L 1148.5 21.5 M 0.5 76.5 L 1148.5 76.5 M 0.5 131.5 L 1148.5 131.5 M 0.5 186.5 L 1148.5 186.5 M 0.5 241.5 L 1148.5 241.5 M 0.5 296.5 L 1148.5 296.5 M 0.5 351.5 L 1148.5 351.5 M 0.5 461.5 L 1148.5 461.5 M 0.5 516.5 L 1148.5 516.5 M 0.5 571.5 L 1148.5 571.5 M 0.5 626.5 L 1148.5 626.5 M 0.5 681.5 L 1148.5 681.5 M 0.5 736.5 L 1148.5 736.5" stroke-opacity="1" stroke-linecap="round" stroke-linejoin="round" stroke-miterlimit="10"/><path fill="none" stroke="rgb(192,192,192)" paint-order="fill stroke markers" d=" M 0.5 10.5 L 1148.5 10.5 M 0.5 10.5 L 1148.5 10.5 M 0.5 32.5 L 1148.5 32.5 M 0.5 43.5 L 1148.5 43.5 M 0.5 54.5 L 1148.5 54.5 M 0.5 65.5 L 1148.5 65.5 M 0.5 87.5 L 1148.5 87.5 M 0.5 98.5 L 1148.5 98.5 M 0.5 109.5 L 1148.5 109.5 M 0.5 120.5 L 1148.5 120.5 M 0.5 142.5 L 1148.5 142.5 M 0.5 153.5 L 1148.5 153.5 M 0.5 164.5 L 1148.5 164.5 M 0.5 175.5 L 1148.5 175.5 M 0.5 197.5 L 1148.5 197.5 M 0.5 208.5 L 1148.5 208.5 M 0.5 219.5 L 1148.5 219.5 M 0.5 230.5 L 1148.5 230.5 M 0.5 252.5 L 1148.5 252.5 M 0.5 263.5 L 1148.5 263.5 M 0.5 274.5 L 1148.5 274.5 M 0.5 285.5 L 1148.5 285.5 M 0.5 307.5 L 1148.5 307.5 M 0.5 318.5 L 1148.5 318.5 M 0.5 329.5 L 1148.5 329.5 M 0.5 340.5 L 1148.5 340.5 M 0.5 362.5 L 1148.5 362.5 M 0.5 373.5 L 1148.5 373.5 M 0.5 384.5 L 1148.5 384.5 M 0.5 395.5 L 1148.5 395.5 M 0.5 417.5 L 1148.5 417.5 M 0.5 428.5 L 1148.5 428.5 M 0.5 439.5 L 1148.5 439.5 M 0.5 450.5 L 1148.5 450.5 M 0.5 472.5 L 1148.5 472.5 M 0.5 483.5 L 1148.5 483.5 M 0.5 494.5 L 1148.5 494.5 M 0.5 505.5 L 1148.5 505.5 M 0.5 527.5 L 1148.5 527.5 M 0.5 538.5 L 1148.5 538.5 M 0.5 549.5 L 1148.5 549.5 M 0.5 560.5 L 1148.5 560.5 M 0.5 582.5 L 1148.5 582.5 M 0.5 593.5 L 1148.5 593.5 M 0.5 604.5 L 1148.5 604.5 M 0.5 615.5 L 1148.5 615.5 M 0.5 637.5 L 1148.5 637.5 M 0.5 648.5 L 1148.5 648.5 M 0.5 659.5 L 1148.5 659.5 M 0.5 670.5 L 1148.5 670.5 M 0.5 692.5 L 1148.5 692.5 M 0.5 703.5 L 1148.5 703.5 M 0.5 714.5 L 1148.5 714.5 M 0.5 725.5 L 1148.5 725.5" stroke-opacity="0.23529411764705882" stroke-linecap="round" stroke-linejoin="round" stroke-miterlimit="10"/><path fill="none" stroke="rgb(37,37,37)" paint-order="fill stroke markers" d=" M 536.5 2.5 L 536.5 740.5" stroke-opacity="1" stroke-miterlimit="10"/><path fill="none" stroke="rgb(37,37,37)" paint-order="fill stroke markers" d=" M 536.5 1.5 L 532.5 5.5" stroke-opacity="1" stroke-miterlimit="10"/><path fill="none" stroke="rgb(37,37,37)" paint-order="fill stroke markers" d=" M 536.5 1.5 L 540.5 5.5" stroke-opacity="1" stroke-miterlimit="10"/><path fill="none" stroke="rgb(37,37,37)" paint-order="fill stroke markers" d=" M 0.5 406.5 L 1146.5 406.5" stroke-opacity="1" stroke-miterlimit="10"/><path fill="none" stroke="rgb(37,37,37)" paint-order="fill stroke markers" d=" M 1147.5 406.5 L 1143.5 402.5" stroke-opacity="1" stroke-miterlimit="10"/><path fill="none" stroke="rgb(37,37,37)" paint-order="fill stroke markers" d=" M 1147.5 406.5 L 1143.5 410.5" stroke-opacity="1" stroke-miterlimit="10"/><text fill="rgb(37,37,37)" stroke="none" font-family="geogebra-sans-serif, sans-serif" font-size="12px" font-style="normal" font-weight="normal" text-decoration="normal" x="36" y="422" text-anchor="start" dominant-baseline="alphabetic" fill-opacity="1">–9</text><text fill="none" stroke="rgb(255,255,255)" font-family="geogebra-sans-serif, sans-serif" font-size="12px" font-style="normal" font-weight="normal" text-decoration="normal" x="36" y="422" text-anchor="start" dominant-baseline="alphabetic" stroke-opacity="1" stroke-linejoin="bevel" stroke-miterlimit="10" stroke-width="3">–9</text><text fill="rgb(37,37,37)" stroke="none" font-family="geogebra-sans-serif, sans-serif" font-size="12px" font-style="normal" font-weight="normal" text-decoration="normal" x="36" y="422" text-anchor="start" dominant-baseline="alphabetic" fill-opacity="1">–9</text><text fill="rgb(37,37,37)" stroke="none" font-family="geogebra-sans-serif, sans-serif" font-size="12px" font-style="normal" font-weight="normal" text-decoration="normal" x="91" y="422" text-anchor="start" dominant-baseline="alphabetic" fill-opacity="1">–8</text><text fill="none" stroke="rgb(255,255,255)" font-family="geogebra-sans-serif, sans-serif" font-size="12px" font-style="normal" font-weight="normal" text-decoration="normal" x="91" y="422" text-anchor="start" dominant-baseline="alphabetic" stroke-opacity="1" stroke-linejoin="bevel" stroke-miterlimit="10" stroke-width="3">–8</text><text fill="rgb(37,37,37)" stroke="none" font-family="geogebra-sans-serif, sans-serif" font-size="12px" font-style="normal" font-weight="normal" text-decoration="normal" x="91" y="422" text-anchor="start" dominant-baseline="alphabetic" fill-opacity="1">–8</text><text fill="rgb(37,37,37)" stroke="none" font-family="geogebra-sans-serif, sans-serif" font-size="12px" font-style="normal" font-weight="normal" text-decoration="normal" x="146" y="422" text-anchor="start" dominant-baseline="alphabetic" fill-opacity="1">–7</text><text fill="none" stroke="rgb(255,255,255)" font-family="geogebra-sans-serif, sans-serif" font-size="12px" font-style="normal" font-weight="normal" text-decoration="normal" x="146" y="422" text-anchor="start" dominant-baseline="alphabetic" stroke-opacity="1" stroke-linejoin="bevel" stroke-miterlimit="10" stroke-width="3">–7</text><text fill="rgb(37,37,37)" stroke="none" font-family="geogebra-sans-serif, sans-serif" font-size="12px" font-style="normal" font-weight="normal" text-decoration="normal" x="146" y="422" text-anchor="start" dominant-baseline="alphabetic" fill-opacity="1">–7</text><text fill="rgb(37,37,37)" stroke="none" font-family="geogebra-sans-serif, sans-serif" font-size="12px" font-style="normal" font-weight="normal" text-decoration="normal" x="201" y="422" text-anchor="start" dominant-baseline="alphabetic" fill-opacity="1">–6</text><text fill="none" stroke="rgb(255,255,255)" font-family="geogebra-sans-serif, sans-serif" font-size="12px" font-style="normal" font-weight="normal" text-decoration="normal" x="201" y="422" text-anchor="start" dominant-baseline="alphabetic" stroke-opacity="1" stroke-linejoin="bevel" stroke-miterlimit="10" stroke-width="3">–6</text><text fill="rgb(37,37,37)" stroke="none" font-family="geogebra-sans-serif, sans-serif" font-size="12px" font-style="normal" font-weight="normal" text-decoration="normal" x="201" y="422" text-anchor="start" dominant-baseline="alphabetic" fill-opacity="1">–6</text><text fill="rgb(37,37,37)" stroke="none" font-family="geogebra-sans-serif, sans-serif" font-size="12px" font-style="normal" font-weight="normal" text-decoration="normal" x="256" y="422" text-anchor="start" dominant-baseline="alphabetic" fill-opacity="1">–5</text><text fill="none" stroke="rgb(255,255,255)" font-family="geogebra-sans-serif, sans-serif" font-size="12px" font-style="normal" font-weight="normal" text-decoration="normal" x="256" y="422" text-anchor="start" dominant-baseline="alphabetic" stroke-opacity="1" stroke-linejoin="bevel" stroke-miterlimit="10" stroke-width="3">–5</text><text fill="rgb(37,37,37)" stroke="none" font-family="geogebra-sans-serif, sans-serif" font-size="12px" font-style="normal" font-weight="normal" text-decoration="normal" x="256" y="422" text-anchor="start" dominant-baseline="alphabetic" fill-opacity="1">–5</text><text fill="rgb(37,37,37)" stroke="none" font-family="geogebra-sans-serif, sans-serif" font-size="12px" font-style="normal" font-weight="normal" text-decoration="normal" x="311" y="422" text-anchor="start" dominant-baseline="alphabetic" fill-opacity="1">–4</text><text fill="none" stroke="rgb(255,255,255)" font-family="geogebra-sans-serif, sans-serif" font-size="12px" font-style="normal" font-weight="normal" text-decoration="normal" x="311" y="422" text-anchor="start" dominant-baseline="alphabetic" stroke-opacity="1" stroke-linejoin="bevel" stroke-miterlimit="10" stroke-width="3">–4</text><text fill="rgb(37,37,37)" stroke="none" font-family="geogebra-sans-serif, sans-serif" font-size="12px" font-style="normal" font-weight="normal" text-decoration="normal" x="311" y="422" text-anchor="start" dominant-baseline="alphabetic" fill-opacity="1">–4</text><text fill="rgb(37,37,37)" stroke="none" font-family="geogebra-sans-serif, sans-serif" font-size="12px" font-style="normal" font-weight="normal" text-decoration="normal" x="366" y="422" text-anchor="start" dominant-baseline="alphabetic" fill-opacity="1">–3</text><text fill="none" stroke="rgb(255,255,255)" font-family="geogebra-sans-serif, sans-serif" font-size="12px" font-style="normal" font-weight="normal" text-decoration="normal" x="366" y="422" text-anchor="start" dominant-baseline="alphabetic" stroke-opacity="1" stroke-linejoin="bevel" stroke-miterlimit="10" stroke-width="3">–3</text><text fill="rgb(37,37,37)" stroke="none" font-family="geogebra-sans-serif, sans-serif" font-size="12px" font-style="normal" font-weight="normal" text-decoration="normal" x="366" y="422" text-anchor="start" dominant-baseline="alphabetic" fill-opacity="1">–3</text><text fill="rgb(37,37,37)" stroke="none" font-family="geogebra-sans-serif, sans-serif" font-size="12px" font-style="normal" font-weight="normal" text-decoration="normal" x="421" y="422" text-anchor="start" dominant-baseline="alphabetic" fill-opacity="1">–2</text><text fill="none" stroke="rgb(255,255,255)" font-family="geogebra-sans-serif, sans-serif" font-size="12px" font-style="normal" font-weight="normal" text-decoration="normal" x="421" y="422" text-anchor="start" dominant-baseline="alphabetic" stroke-opacity="1" stroke-linejoin="bevel" stroke-miterlimit="10" stroke-width="3">–2</text><text fill="rgb(37,37,37)" stroke="none" font-family="geogebra-sans-serif, sans-serif" font-size="12px" font-style="normal" font-weight="normal" text-decoration="normal" x="421" y="422" text-anchor="start" dominant-baseline="alphabetic" fill-opacity="1">–2</text><text fill="rgb(37,37,37)" stroke="none" font-family="geogebra-sans-serif, sans-serif" font-size="12px" font-style="normal" font-weight="normal" text-decoration="normal" x="476" y="422" text-anchor="start" dominant-baseline="alphabetic" fill-opacity="1">–1</text><text fill="none" stroke="rgb(255,255,255)" font-family="geogebra-sans-serif, sans-serif" font-size="12px" font-style="normal" font-weight="normal" text-decoration="normal" x="476" y="422" text-anchor="start" dominant-baseline="alphabetic" stroke-opacity="1" stroke-linejoin="bevel" stroke-miterlimit="10" stroke-width="3">–1</text><text fill="rgb(37,37,37)" stroke="none" font-family="geogebra-sans-serif, sans-serif" font-size="12px" font-style="normal" font-weight="normal" text-decoration="normal" x="476" y="422" text-anchor="start" dominant-baseline="alphabetic" fill-opacity="1">–1</text><text fill="rgb(37,37,37)" stroke="none" font-family="geogebra-sans-serif, sans-serif" font-size="12px" font-style="normal" font-weight="normal" text-decoration="normal" x="589" y="422" text-anchor="start" dominant-baseline="alphabetic" fill-opacity="1">1</text><text fill="none" stroke="rgb(255,255,255)" font-family="geogebra-sans-serif, sans-serif" font-size="12px" font-style="normal" font-weight="normal" text-decoration="normal" x="589" y="422" text-anchor="start" dominant-baseline="alphabetic" stroke-opacity="1" stroke-linejoin="bevel" stroke-miterlimit="10" stroke-width="3">1</text><text fill="rgb(37,37,37)" stroke="none" font-family="geogebra-sans-serif, sans-serif" font-size="12px" font-style="normal" font-weight="normal" text-decoration="normal" x="589" y="422" text-anchor="start" dominant-baseline="alphabetic" fill-opacity="1">1</text><text fill="rgb(37,37,37)" stroke="none" font-family="geogebra-sans-serif, sans-serif" font-size="12px" font-style="normal" font-weight="normal" text-decoration="normal" x="644" y="422" text-anchor="start" dominant-baseline="alphabetic" fill-opacity="1">2</text><text fill="none" stroke="rgb(255,255,255)" font-family="geogebra-sans-serif, sans-serif" font-size="12px" font-style="normal" font-weight="normal" text-decoration="normal" x="644" y="422" text-anchor="start" dominant-baseline="alphabetic" stroke-opacity="1" stroke-linejoin="bevel" stroke-miterlimit="10" stroke-width="3">2</text><text fill="rgb(37,37,37)" stroke="none" font-family="geogebra-sans-serif, sans-serif" font-size="12px" font-style="normal" font-weight="normal" text-decoration="normal" x="644" y="422" text-anchor="start" dominant-baseline="alphabetic" fill-opacity="1">2</text><text fill="rgb(37,37,37)" stroke="none" font-family="geogebra-sans-serif, sans-serif" font-size="12px" font-style="normal" font-weight="normal" text-decoration="normal" x="699" y="422" text-anchor="start" dominant-baseline="alphabetic" fill-opacity="1">3</text><text fill="none" stroke="rgb(255,255,255)" font-family="geogebra-sans-serif, sans-serif" font-size="12px" font-style="normal" font-weight="normal" text-decoration="normal" x="699" y="422" text-anchor="start" dominant-baseline="alphabetic" stroke-opacity="1" stroke-linejoin="bevel" stroke-miterlimit="10" stroke-width="3">3</text><text fill="rgb(37,37,37)" stroke="none" font-family="geogebra-sans-serif, sans-serif" font-size="12px" font-style="normal" font-weight="normal" text-decoration="normal" x="699" y="422" text-anchor="start" dominant-baseline="alphabetic" fill-opacity="1">3</text><text fill="rgb(37,37,37)" stroke="none" font-family="geogebra-sans-serif, sans-serif" font-size="12px" font-style="normal" font-weight="normal" text-decoration="normal" x="754" y="422" text-anchor="start" dominant-baseline="alphabetic" fill-opacity="1">4</text><text fill="none" stroke="rgb(255,255,255)" font-family="geogebra-sans-serif, sans-serif" font-size="12px" font-style="normal" font-weight="normal" text-decoration="normal" x="754" y="422" text-anchor="start" dominant-baseline="alphabetic" stroke-opacity="1" stroke-linejoin="bevel" stroke-miterlimit="10" stroke-width="3">4</text><text fill="rgb(37,37,37)" stroke="none" font-family="geogebra-sans-serif, sans-serif" font-size="12px" font-style="normal" font-weight="normal" text-decoration="normal" x="754" y="422" text-anchor="start" dominant-baseline="alphabetic" fill-opacity="1">4</text><text fill="rgb(37,37,37)" stroke="none" font-family="geogebra-sans-serif, sans-serif" font-size="12px" font-style="normal" font-weight="normal" text-decoration="normal" x="809" y="422" text-anchor="start" dominant-baseline="alphabetic" fill-opacity="1">5</text><text fill="none" stroke="rgb(255,255,255)" font-family="geogebra-sans-serif, sans-serif" font-size="12px" font-style="normal" font-weight="normal" text-decoration="normal" x="809" y="422" text-anchor="start" dominant-baseline="alphabetic" stroke-opacity="1" stroke-linejoin="bevel" stroke-miterlimit="10" stroke-width="3">5</text><text fill="rgb(37,37,37)" stroke="none" font-family="geogebra-sans-serif, sans-serif" font-size="12px" font-style="normal" font-weight="normal" text-decoration="normal" x="809" y="422" text-anchor="start" dominant-baseline="alphabetic" fill-opacity="1">5</text><text fill="rgb(37,37,37)" stroke="none" font-family="geogebra-sans-serif, sans-serif" font-size="12px" font-style="normal" font-weight="normal" text-decoration="normal" x="864" y="422" text-anchor="start" dominant-baseline="alphabetic" fill-opacity="1">6</text><text fill="none" stroke="rgb(255,255,255)" font-family="geogebra-sans-serif, sans-serif" font-size="12px" font-style="normal" font-weight="normal" text-decoration="normal" x="864" y="422" text-anchor="start" dominant-baseline="alphabetic" stroke-opacity="1" stroke-linejoin="bevel" stroke-miterlimit="10" stroke-width="3">6</text><text fill="rgb(37,37,37)" stroke="none" font-family="geogebra-sans-serif, sans-serif" font-size="12px" font-style="normal" font-weight="normal" text-decoration="normal" x="864" y="422" text-anchor="start" dominant-baseline="alphabetic" fill-opacity="1">6</text><text fill="rgb(37,37,37)" stroke="none" font-family="geogebra-sans-serif, sans-serif" font-size="12px" font-style="normal" font-weight="normal" text-decoration="normal" x="919" y="422" text-anchor="start" dominant-baseline="alphabetic" fill-opacity="1">7</text><text fill="none" stroke="rgb(255,255,255)" font-family="geogebra-sans-serif, sans-serif" font-size="12px" font-style="normal" font-weight="normal" text-decoration="normal" x="919" y="422" text-anchor="start" dominant-baseline="alphabetic" stroke-opacity="1" stroke-linejoin="bevel" stroke-miterlimit="10" stroke-width="3">7</text><text fill="rgb(37,37,37)" stroke="none" font-family="geogebra-sans-serif, sans-serif" font-size="12px" font-style="normal" font-weight="normal" text-decoration="normal" x="919" y="422" text-anchor="start" dominant-baseline="alphabetic" fill-opacity="1">7</text><text fill="rgb(37,37,37)" stroke="none" font-family="geogebra-sans-serif, sans-serif" font-size="12px" font-style="normal" font-weight="normal" text-decoration="normal" x="974" y="422" text-anchor="start" dominant-baseline="alphabetic" fill-opacity="1">8</text><text fill="none" stroke="rgb(255,255,255)" font-family="geogebra-sans-serif, sans-serif" font-size="12px" font-style="normal" font-weight="normal" text-decoration="normal" x="974" y="422" text-anchor="start" dominant-baseline="alphabetic" stroke-opacity="1" stroke-linejoin="bevel" stroke-miterlimit="10" stroke-width="3">8</text><text fill="rgb(37,37,37)" stroke="none" font-family="geogebra-sans-serif, sans-serif" font-size="12px" font-style="normal" font-weight="normal" text-decoration="normal" x="974" y="422" text-anchor="start" dominant-baseline="alphabetic" fill-opacity="1">8</text><text fill="rgb(37,37,37)" stroke="none" font-family="geogebra-sans-serif, sans-serif" font-size="12px" font-style="normal" font-weight="normal" text-decoration="normal" x="1029" y="422" text-anchor="start" dominant-baseline="alphabetic" fill-opacity="1">9</text><text fill="none" stroke="rgb(255,255,255)" font-family="geogebra-sans-serif, sans-serif" font-size="12px" font-style="normal" font-weight="normal" text-decoration="normal" x="1029" y="422" text-anchor="start" dominant-baseline="alphabetic" stroke-opacity="1" stroke-linejoin="bevel" stroke-miterlimit="10" stroke-width="3">9</text><text fill="rgb(37,37,37)" stroke="none" font-family="geogebra-sans-serif, sans-serif" font-size="12px" font-style="normal" font-weight="normal" text-decoration="normal" x="1029" y="422" text-anchor="start" dominant-baseline="alphabetic" fill-opacity="1">9</text><text fill="rgb(37,37,37)" stroke="none" font-family="geogebra-sans-serif, sans-serif" font-size="12px" font-style="normal" font-weight="normal" text-decoration="normal" x="1081" y="422" text-anchor="start" dominant-baseline="alphabetic" fill-opacity="1">10</text><text fill="none" stroke="rgb(255,255,255)" font-family="geogebra-sans-serif, sans-serif" font-size="12px" font-style="normal" font-weight="normal" text-decoration="normal" x="1081" y="422" text-anchor="start" dominant-baseline="alphabetic" stroke-opacity="1" stroke-linejoin="bevel" stroke-miterlimit="10" stroke-width="3">10</text><text fill="rgb(37,37,37)" stroke="none" font-family="geogebra-sans-serif, sans-serif" font-size="12px" font-style="normal" font-weight="normal" text-decoration="normal" x="1081" y="422" text-anchor="start" dominant-baseline="alphabetic" fill-opacity="1">10</text><text fill="rgb(37,37,37)" stroke="none" font-family="geogebra-sans-serif, sans-serif" font-size="12px" font-style="normal" font-weight="normal" text-decoration="normal" x="515" y="686" text-anchor="start" dominant-baseline="alphabetic" fill-opacity="1">–5</text><text fill="none" stroke="rgb(255,255,255)" font-family="geogebra-sans-serif, sans-serif" font-size="12px" font-style="normal" font-weight="normal" text-decoration="normal" x="515" y="686" text-anchor="start" dominant-baseline="alphabetic" stroke-opacity="1" stroke-linejoin="bevel" stroke-miterlimit="10" stroke-width="3">–5</text><text fill="rgb(37,37,37)" stroke="none" font-family="geogebra-sans-serif, sans-serif" font-size="12px" font-style="normal" font-weight="normal" text-decoration="normal" x="515" y="686" text-anchor="start" dominant-baseline="alphabetic" fill-opacity="1">–5</text><text fill="rgb(37,37,37)" stroke="none" font-family="geogebra-sans-serif, sans-serif" font-size="12px" font-style="normal" font-weight="normal" text-decoration="normal" x="515" y="631" text-anchor="start" dominant-baseline="alphabetic" fill-opacity="1">–4</text><text fill="none" stroke="rgb(255,255,255)" font-family="geogebra-sans-serif, sans-serif" font-size="12px" font-style="normal" font-weight="normal" text-decoration="normal" x="515" y="631" text-anchor="start" dominant-baseline="alphabetic" stroke-opacity="1" stroke-linejoin="bevel" stroke-miterlimit="10" stroke-width="3">–4</text><text fill="rgb(37,37,37)" stroke="none" font-family="geogebra-sans-serif, sans-serif" font-size="12px" font-style="normal" font-weight="normal" text-decoration="normal" x="515" y="631" text-anchor="start" dominant-baseline="alphabetic" fill-opacity="1">–4</text><text fill="rgb(37,37,37)" stroke="none" font-family="geogebra-sans-serif, sans-serif" font-size="12px" font-style="normal" font-weight="normal" text-decoration="normal" x="515" y="576" text-anchor="start" dominant-baseline="alphabetic" fill-opacity="1">–3</text><text fill="none" stroke="rgb(255,255,255)" font-family="geogebra-sans-serif, sans-serif" font-size="12px" font-style="normal" font-weight="normal" text-decoration="normal" x="515" y="576" text-anchor="start" dominant-baseline="alphabetic" stroke-opacity="1" stroke-linejoin="bevel" stroke-miterlimit="10" stroke-width="3">–3</text><text fill="rgb(37,37,37)" stroke="none" font-family="geogebra-sans-serif, sans-serif" font-size="12px" font-style="normal" font-weight="normal" text-decoration="normal" x="515" y="576" text-anchor="start" dominant-baseline="alphabetic" fill-opacity="1">–3</text><text fill="rgb(37,37,37)" stroke="none" font-family="geogebra-sans-serif, sans-serif" font-size="12px" font-style="normal" font-weight="normal" text-decoration="normal" x="515" y="521" text-anchor="start" dominant-baseline="alphabetic" fill-opacity="1">–2</text><text fill="none" stroke="rgb(255,255,255)" font-family="geogebra-sans-serif, sans-serif" font-size="12px" font-style="normal" font-weight="normal" text-decoration="normal" x="515" y="521" text-anchor="start" dominant-baseline="alphabetic" stroke-opacity="1" stroke-linejoin="bevel" stroke-miterlimit="10" stroke-width="3">–2</text><text fill="rgb(37,37,37)" stroke="none" font-family="geogebra-sans-serif, sans-serif" font-size="12px" font-style="normal" font-weight="normal" text-decoration="normal" x="515" y="521" text-anchor="start" dominant-baseline="alphabetic" fill-opacity="1">–2</text><text fill="rgb(37,37,37)" stroke="none" font-family="geogebra-sans-serif, sans-serif" font-size="12px" font-style="normal" font-weight="normal" text-decoration="normal" x="515" y="466" text-anchor="start" dominant-baseline="alphabetic" fill-opacity="1">–1</text><text fill="none" stroke="rgb(255,255,255)" font-family="geogebra-sans-serif, sans-serif" font-size="12px" font-style="normal" font-weight="normal" text-decoration="normal" x="515" y="466" text-anchor="start" dominant-baseline="alphabetic" stroke-opacity="1" stroke-linejoin="bevel" stroke-miterlimit="10" stroke-width="3">–1</text><text fill="rgb(37,37,37)" stroke="none" font-family="geogebra-sans-serif, sans-serif" font-size="12px" font-style="normal" font-weight="normal" text-decoration="normal" x="515" y="466" text-anchor="start" dominant-baseline="alphabetic" fill-opacity="1">–1</text><text fill="rgb(37,37,37)" stroke="none" font-family="geogebra-sans-serif, sans-serif" font-size="12px" font-style="normal" font-weight="normal" text-decoration="normal" x="522" y="356" text-anchor="start" dominant-baseline="alphabetic" fill-opacity="1">1</text><text fill="none" stroke="rgb(255,255,255)" font-family="geogebra-sans-serif, sans-serif" font-size="12px" font-style="normal" font-weight="normal" text-decoration="normal" x="522" y="356" text-anchor="start" dominant-baseline="alphabetic" stroke-opacity="1" stroke-linejoin="bevel" stroke-miterlimit="10" stroke-width="3">1</text><text fill="rgb(37,37,37)" stroke="none" font-family="geogebra-sans-serif, sans-serif" font-size="12px" font-style="normal" font-weight="normal" text-decoration="normal" x="522" y="356" text-anchor="start" dominant-baseline="alphabetic" fill-opacity="1">1</text><text fill="rgb(37,37,37)" stroke="none" font-family="geogebra-sans-serif, sans-serif" font-size="12px" font-style="normal" font-weight="normal" text-decoration="normal" x="522" y="301" text-anchor="start" dominant-baseline="alphabetic" fill-opacity="1">2</text><text fill="none" stroke="rgb(255,255,255)" font-family="geogebra-sans-serif, sans-serif" font-size="12px" font-style="normal" font-weight="normal" text-decoration="normal" x="522" y="301" text-anchor="start" dominant-baseline="alphabetic" stroke-opacity="1" stroke-linejoin="bevel" stroke-miterlimit="10" stroke-width="3">2</text><text fill="rgb(37,37,37)" stroke="none" font-family="geogebra-sans-serif, sans-serif" font-size="12px" font-style="normal" font-weight="normal" text-decoration="normal" x="522" y="301" text-anchor="start" dominant-baseline="alphabetic" fill-opacity="1">2</text><text fill="rgb(37,37,37)" stroke="none" font-family="geogebra-sans-serif, sans-serif" font-size="12px" font-style="normal" font-weight="normal" text-decoration="normal" x="522" y="246" text-anchor="start" dominant-baseline="alphabetic" fill-opacity="1">3</text><text fill="none" stroke="rgb(255,255,255)" font-family="geogebra-sans-serif, sans-serif" font-size="12px" font-style="normal" font-weight="normal" text-decoration="normal" x="522" y="246" text-anchor="start" dominant-baseline="alphabetic" stroke-opacity="1" stroke-linejoin="bevel" stroke-miterlimit="10" stroke-width="3">3</text><text fill="rgb(37,37,37)" stroke="none" font-family="geogebra-sans-serif, sans-serif" font-size="12px" font-style="normal" font-weight="normal" text-decoration="normal" x="522" y="246" text-anchor="start" dominant-baseline="alphabetic" fill-opacity="1">3</text><text fill="rgb(37,37,37)" stroke="none" font-family="geogebra-sans-serif, sans-serif" font-size="12px" font-style="normal" font-weight="normal" text-decoration="normal" x="522" y="191" text-anchor="start" dominant-baseline="alphabetic" fill-opacity="1">4</text><text fill="none" stroke="rgb(255,255,255)" font-family="geogebra-sans-serif, sans-serif" font-size="12px" font-style="normal" font-weight="normal" text-decoration="normal" x="522" y="191" text-anchor="start" dominant-baseline="alphabetic" stroke-opacity="1" stroke-linejoin="bevel" stroke-miterlimit="10" stroke-width="3">4</text><text fill="rgb(37,37,37)" stroke="none" font-family="geogebra-sans-serif, sans-serif" font-size="12px" font-style="normal" font-weight="normal" text-decoration="normal" x="522" y="191" text-anchor="start" dominant-baseline="alphabetic" fill-opacity="1">4</text><text fill="rgb(37,37,37)" stroke="none" font-family="geogebra-sans-serif, sans-serif" font-size="12px" font-style="normal" font-weight="normal" text-decoration="normal" x="522" y="136" text-anchor="start" dominant-baseline="alphabetic" fill-opacity="1">5</text><text fill="none" stroke="rgb(255,255,255)" font-family="geogebra-sans-serif, sans-serif" font-size="12px" font-style="normal" font-weight="normal" text-decoration="normal" x="522" y="136" text-anchor="start" dominant-baseline="alphabetic" stroke-opacity="1" stroke-linejoin="bevel" stroke-miterlimit="10" stroke-width="3">5</text><text fill="rgb(37,37,37)" stroke="none" font-family="geogebra-sans-serif, sans-serif" font-size="12px" font-style="normal" font-weight="normal" text-decoration="normal" x="522" y="136" text-anchor="start" dominant-baseline="alphabetic" fill-opacity="1">5</text><text fill="rgb(37,37,37)" stroke="none" font-family="geogebra-sans-serif, sans-serif" font-size="12px" font-style="normal" font-weight="normal" text-decoration="normal" x="522" y="81" text-anchor="start" dominant-baseline="alphabetic" fill-opacity="1">6</text><text fill="none" stroke="rgb(255,255,255)" font-family="geogebra-sans-serif, sans-serif" font-size="12px" font-style="normal" font-weight="normal" text-decoration="normal" x="522" y="81" text-anchor="start" dominant-baseline="alphabetic" stroke-opacity="1" stroke-linejoin="bevel" stroke-miterlimit="10" stroke-width="3">6</text><text fill="rgb(37,37,37)" stroke="none" font-family="geogebra-sans-serif, sans-serif" font-size="12px" font-style="normal" font-weight="normal" text-decoration="normal" x="522" y="81" text-anchor="start" dominant-baseline="alphabetic" fill-opacity="1">6</text><text fill="rgb(37,37,37)" stroke="none" font-family="geogebra-sans-serif, sans-serif" font-size="12px" font-style="normal" font-weight="normal" text-decoration="normal" x="522" y="26" text-anchor="start" dominant-baseline="alphabetic" fill-opacity="1">7</text><text fill="none" stroke="rgb(255,255,255)" font-family="geogebra-sans-serif, sans-serif" font-size="12px" font-style="normal" font-weight="normal" text-decoration="normal" x="522" y="26" text-anchor="start" dominant-baseline="alphabetic" stroke-opacity="1" stroke-linejoin="bevel" stroke-miterlimit="10" stroke-width="3">7</text><text fill="rgb(37,37,37)" stroke="none" font-family="geogebra-sans-serif, sans-serif" font-size="12px" font-style="normal" font-weight="normal" text-decoration="normal" x="522" y="26" text-anchor="start" dominant-baseline="alphabetic" fill-opacity="1">7</text><text fill="rgb(37,37,37)" stroke="none" font-family="geogebra-sans-serif, sans-serif" font-size="12px" font-style="normal" font-weight="normal" text-decoration="normal" x="522" y="422" text-anchor="start" dominant-baseline="alphabetic" fill-opacity="1">0</text><text fill="none" stroke="rgb(255,255,255)" font-family="geogebra-sans-serif, sans-serif" font-size="12px" font-style="normal" font-weight="normal" text-decoration="normal" x="522" y="422" text-anchor="start" dominant-baseline="alphabetic" stroke-opacity="1" stroke-linejoin="bevel" stroke-miterlimit="10" stroke-width="3">0</text><text fill="rgb(37,37,37)" stroke="none" font-family="geogebra-sans-serif, sans-serif" font-size="12px" font-style="normal" font-weight="normal" text-decoration="normal" x="522" y="422" text-anchor="start" dominant-baseline="alphabetic" fill-opacity="1">0</text><path fill="none" stroke="rgb(0,0,0)" paint-order="fill stroke markers" d=" M 734.5053201505193 406.20000000000005 C 734.5053201505193 315.0730162779192 645.7210041294449 241.20000000000005 536.1999999999999 241.20000000000005 C 426.67899587055496 241.20000000000005 337.89467984948055 315.0730162779192 337.89467984948055 406.20000000000005 C 337.89467984948055 497.32698372208097 426.67899587055496 571.2 536.1999999999999 571.2 C 645.7210041294449 571.2 734.5053201505193 497.32698372208097 734.5053201505193 406.20000000000005 Z" stroke-opacity="0.6980392156862745" stroke-linecap="round" stroke-linejoin="round" stroke-miterlimit="10" stroke-width="2.5"/><path fill="none" stroke="rgb(0,0,0)" paint-order="fill stroke markers" d=" M 660.658624946754 277.74304639378255 L 426.19999999999993 406.20000000000005" stroke-opacity="0.6980392156862745" stroke-linecap="round" stroke-linejoin="round" stroke-miterlimit="10" stroke-width="2.5"/><path fill="none" stroke="rgb(0,0,0)" paint-order="fill stroke markers" d=" M 660.658624946754 277.74304639378255 L 646.1999999999999 406.20000000000005" stroke-opacity="0.6980392156862745" stroke-linecap="round" stroke-linejoin="round" stroke-miterlimit="10" stroke-width="2.5"/><path fill="rgb(77,77,255)" stroke="none" paint-order="stroke fill markers" d=" M 431.19999999999993 406.20000000000005 C 431.19999999999993 408.961423749154 428.9614237491539 411.20000000000005 426.19999999999993 411.20000000000005 C 423.438576250846 411.20000000000005 421.19999999999993 408.961423749154 421.19999999999993 406.20000000000005 C 421.19999999999993 403.4385762508461 423.438576250846 401.20000000000005 426.19999999999993 401.20000000000005 C 428.9614237491539 401.20000000000005 431.19999999999993 403.4385762508461 431.19999999999993 406.20000000000005 Z" fill-opacity="1"/><path fill="none" stroke="rgb(0,0,0)" paint-order="fill stroke markers" d=" M 431.19999999999993 406.20000000000005 C 431.19999999999993 408.961423749154 428.9614237491539 411.20000000000005 426.19999999999993 411.20000000000005 C 423.438576250846 411.20000000000005 421.19999999999993 408.961423749154 421.19999999999993 406.20000000000005 C 421.19999999999993 403.4385762508461 423.438576250846 401.20000000000005 426.19999999999993 401.20000000000005 C 428.9614237491539 401.20000000000005 431.19999999999993 403.4385762508461 431.19999999999993 406.20000000000005 Z" stroke-opacity="1" stroke-linecap="round" stroke-linejoin="round" stroke-miterlimit="10"/><text fill="rgb(77,77,255)" stroke="none" font-family="geogebra-sans-serif, sans-serif" font-size="16px" font-style="normal" font-weight="normal" text-decoration="normal" x="430" y="396" text-anchor="start" dominant-baseline="alphabetic" fill-opacity="1">F</text><text fill="none" stroke="rgb(255,255,255)" font-family="geogebra-sans-serif, sans-serif" font-size="16px" font-style="normal" font-weight="normal" text-decoration="normal" x="430" y="396" text-anchor="start" dominant-baseline="alphabetic" stroke-opacity="1" stroke-linejoin="bevel" stroke-miterlimit="10" stroke-width="3">F</text><text fill="rgb(77,77,255)" stroke="none" font-family="geogebra-sans-serif, sans-serif" font-size="16px" font-style="normal" font-weight="normal" text-decoration="normal" x="430" y="396" text-anchor="start" dominant-baseline="alphabetic" fill-opacity="1">F</text><text fill="rgb(77,77,255)" stroke="none" font-family="geogebra-sans-serif, sans-serif" font-size="14px" font-style="normal" font-weight="normal" text-decoration="normal" x="439" y="403" text-anchor="start" dominant-baseline="alphabetic" fill-opacity="1">1</text><text fill="none" stroke="rgb(255,255,255)" font-family="geogebra-sans-serif, sans-serif" font-size="14px" font-style="normal" font-weight="normal" text-decoration="normal" x="439" y="403" text-anchor="start" dominant-baseline="alphabetic" stroke-opacity="1" stroke-linejoin="bevel" stroke-miterlimit="10" stroke-width="3">1</text><text fill="rgb(77,77,255)" stroke="none" font-family="geogebra-sans-serif, sans-serif" font-size="14px" font-style="normal" font-weight="normal" text-decoration="normal" x="439" y="403" text-anchor="start" dominant-baseline="alphabetic" fill-opacity="1">1</text><path fill="rgb(77,77,255)" stroke="none" paint-order="stroke fill markers" d=" M 651.1999999999999 406.20000000000005 C 651.1999999999999 408.961423749154 648.9614237491539 411.20000000000005 646.1999999999999 411.20000000000005 C 643.4385762508459 411.20000000000005 641.1999999999999 408.961423749154 641.1999999999999 406.20000000000005 C 641.1999999999999 403.4385762508461 643.4385762508459 401.20000000000005 646.1999999999999 401.20000000000005 C 648.9614237491539 401.20000000000005 651.1999999999999 403.4385762508461 651.1999999999999 406.20000000000005 Z" fill-opacity="1"/><path fill="none" stroke="rgb(0,0,0)" paint-order="fill stroke markers" d=" M 651.1999999999999 406.20000000000005 C 651.1999999999999 408.961423749154 648.9614237491539 411.20000000000005 646.1999999999999 411.20000000000005 C 643.4385762508459 411.20000000000005 641.1999999999999 408.961423749154 641.1999999999999 406.20000000000005 C 641.1999999999999 403.4385762508461 643.4385762508459 401.20000000000005 646.1999999999999 401.20000000000005 C 648.9614237491539 401.20000000000005 651.1999999999999 403.4385762508461 651.1999999999999 406.20000000000005 Z" stroke-opacity="1" stroke-linecap="round" stroke-linejoin="round" stroke-miterlimit="10"/><text fill="rgb(77,77,255)" stroke="none" font-family="geogebra-sans-serif, sans-serif" font-size="16px" font-style="normal" font-weight="normal" text-decoration="normal" x="650" y="396" text-anchor="start" dominant-baseline="alphabetic" fill-opacity="1">F</text><text fill="none" stroke="rgb(255,255,255)" font-family="geogebra-sans-serif, sans-serif" font-size="16px" font-style="normal" font-weight="normal" text-decoration="normal" x="650" y="396" text-anchor="start" dominant-baseline="alphabetic" stroke-opacity="1" stroke-linejoin="bevel" stroke-miterlimit="10" stroke-width="3">F</text><text fill="rgb(77,77,255)" stroke="none" font-family="geogebra-sans-serif, sans-serif" font-size="16px" font-style="normal" font-weight="normal" text-decoration="normal" x="650" y="396" text-anchor="start" dominant-baseline="alphabetic" fill-opacity="1">F</text><text fill="rgb(77,77,255)" stroke="none" font-family="geogebra-sans-serif, sans-serif" font-size="14px" font-style="normal" font-weight="normal" text-decoration="normal" x="659" y="403" text-anchor="start" dominant-baseline="alphabetic" fill-opacity="1">2</text><text fill="none" stroke="rgb(255,255,255)" font-family="geogebra-sans-serif, sans-serif" font-size="14px" font-style="normal" font-weight="normal" text-decoration="normal" x="659" y="403" text-anchor="start" dominant-baseline="alphabetic" stroke-opacity="1" stroke-linejoin="bevel" stroke-miterlimit="10" stroke-width="3">2</text><text fill="rgb(77,77,255)" stroke="none" font-family="geogebra-sans-serif, sans-serif" font-size="14px" font-style="normal" font-weight="normal" text-decoration="normal" x="659" y="403" text-anchor="start" dominant-baseline="alphabetic" fill-opacity="1">2</text><path fill="rgb(77,77,255)" stroke="none" paint-order="stroke fill markers" d=" M 541.1999999999999 406.20000000000005 C 541.1999999999999 408.961423749154 538.9614237491539 411.20000000000005 536.1999999999999 411.20000000000005 C 533.4385762508459 411.20000000000005 531.1999999999999 408.961423749154 531.1999999999999 406.20000000000005 C 531.1999999999999 403.4385762508461 533.4385762508459 401.20000000000005 536.1999999999999 401.20000000000005 C 538.9614237491539 401.20000000000005 541.1999999999999 403.4385762508461 541.1999999999999 406.20000000000005 Z" fill-opacity="1"/><path fill="none" stroke="rgb(0,0,0)" paint-order="fill stroke markers" d=" M 541.1999999999999 406.20000000000005 C 541.1999999999999 408.961423749154 538.9614237491539 411.20000000000005 536.1999999999999 411.20000000000005 C 533.4385762508459 411.20000000000005 531.1999999999999 408.961423749154 531.1999999999999 406.20000000000005 C 531.1999999999999 403.4385762508461 533.4385762508459 401.20000000000005 536.1999999999999 401.20000000000005 C 538.9614237491539 401.20000000000005 541.1999999999999 403.4385762508461 541.1999999999999 406.20000000000005 Z" stroke-opacity="1" stroke-linecap="round" stroke-linejoin="round" stroke-miterlimit="10"/><text fill="rgb(77,77,255)" stroke="none" font-family="geogebra-sans-serif, sans-serif" font-size="16px" font-style="normal" font-weight="normal" text-decoration="normal" x="540" y="396" text-anchor="start" dominant-baseline="alphabetic" fill-opacity="1">O</text><text fill="none" stroke="rgb(255,255,255)" font-family="geogebra-sans-serif, sans-serif" font-size="16px" font-style="normal" font-weight="normal" text-decoration="normal" x="540" y="396" text-anchor="start" dominant-baseline="alphabetic" stroke-opacity="1" stroke-linejoin="bevel" stroke-miterlimit="10" stroke-width="3">O</text><text fill="rgb(77,77,255)" stroke="none" font-family="geogebra-sans-serif, sans-serif" font-size="16px" font-style="normal" font-weight="normal" text-decoration="normal" x="540" y="396" text-anchor="start" dominant-baseline="alphabetic" fill-opacity="1">O</text><path fill="rgb(125,125,255)" stroke="none" paint-order="stroke fill markers" d=" M 665.658624946754 277.74304639378255 C 665.658624946754 280.5044701429365 663.420048695908 282.74304639378255 660.658624946754 282.74304639378255 C 657.8972011976 282.74304639378255 655.658624946754 280.5044701429365 655.658624946754 277.74304639378255 C 655.658624946754 274.9816226446286 657.8972011976 272.74304639378255 660.658624946754 272.74304639378255 C 663.420048695908 272.74304639378255 665.658624946754 274.9816226446286 665.658624946754 277.74304639378255 Z" fill-opacity="1"/><path fill="none" stroke="rgb(0,0,0)" paint-order="fill stroke markers" d=" M 665.658624946754 277.74304639378255 C 665.658624946754 280.5044701429365 663.420048695908 282.74304639378255 660.658624946754 282.74304639378255 C 657.8972011976 282.74304639378255 655.658624946754 280.5044701429365 655.658624946754 277.74304639378255 C 655.658624946754 274.9816226446286 657.8972011976 272.74304639378255 660.658624946754 272.74304639378255 C 663.420048695908 272.74304639378255 665.658624946754 274.9816226446286 665.658624946754 277.74304639378255 Z" stroke-opacity="1" stroke-linecap="round" stroke-linejoin="round" stroke-miterlimit="10"/><text fill="rgb(125,125,255)" stroke="none" font-family="geogebra-sans-serif, sans-serif" font-size="16px" font-style="normal" font-weight="normal" text-decoration="normal" x="665" y="268" text-anchor="start" dominant-baseline="alphabetic" fill-opacity="1">M</text><text fill="none" stroke="rgb(255,255,255)" font-family="geogebra-sans-serif, sans-serif" font-size="16px" font-style="normal" font-weight="normal" text-decoration="normal" x="665" y="268" text-anchor="start" dominant-baseline="alphabetic" stroke-opacity="1" stroke-linejoin="bevel" stroke-miterlimit="10" stroke-width="3">M</text><text fill="rgb(125,125,255)" stroke="none" font-family="geogebra-sans-serif, sans-serif" font-size="16px" font-style="normal" font-weight="normal" text-decoration="normal" x="665" y="268" text-anchor="start" dominant-baseline="alphabetic" fill-opacity="1">M</text></g></g></svg>